
<svg width="600" height="474.6" xmlns="http://www.w3.org/2000/svg" xml:space="preserve" version="1.1" >

 <g>
  <title>Layer 1</title>
  <g id="svg_6">
   <path id="svg_7" fill="#DC3793" d="m215.55,205.69c0,0 4.38,1.82 4.21,3c-0.17,1.18 2.52,3.42 2.52,3.42l-0.75,4.13l-4.4,2.3l-4.27,-5.19l2.69,-7.66z" class="st1"/>
   <path id="svg_8" stroke-miterlimit="10" stroke-width="3" stroke="#070808" fill="none" d="m240.32,135.9l8.4,2.73l11.01,1.6c0,0 7.95,3.54 8.68,4.21c0.73,0.67 4.25,0.06 4.25,0.06s3.36,3.9 3.42,4.45c0.63,5.32 3.17,29.62 3.17,29.62l-3.91,18.37l3.18,3.92l-23.07,13.23l-8.32,7.09l-7.33,1.73l-10.3,-10.49l-5.02,1.18l-6.67,-7.37l-4.4,-0.83l-0.77,-3.96l8.79,-23.42l-0.65,-8.6l1.01,-9.37l9.41,-16.04l9.12,-8.11z" class="st2"/>
   <path id="svg_9" stroke-miterlimit="10" stroke-width="3" stroke="#070808" fill="none" d="m278.51,200.86l4.4,-4.39l12.63,-6.7l6.11,-10.13c0,0 -0.33,-3.78 -0.77,-3.97c-0.44,-0.19 -15.88,-20.55 -15.88,-20.55l-8.99,-6.71l7.85,16.46l-5.11,16.02" class="st2"/>
   <polyline id="svg_10" stroke-miterlimit="10" stroke-width="3" stroke="#070808" fill="none" points="220.9499969482422,167.7699966430664 217.27999877929688,167.08999633789062 217.5800018310547,159.5 216.22000122070312,152.45999908447266 234.33999633789062,136.30999755859375 240.32000732421875,135.9000015258789 " class="st2"/>
   <polyline id="svg_11" stroke-miterlimit="10" stroke-width="3" stroke="#070808" fill="none" points="254.52000427246094,214.8699951171875 242.5800018310547,190.3800048828125 233.11000061035156,189.4499969482422 229.0399932861328,191.33999633789062 226.08999633789062,201.13999938964844 229.47999572753906,212.4199981689453 " class="st2"/>
   <polyline id="svg_12" stroke-miterlimit="10" stroke-width="3" stroke="#070808" fill="none" points="229.0399932861328,191.33999633789062 223.72000122070312,188.89999389648438 223.88999938964844,185.5800018310547 216.11000061035156,192.17999267578125 " class="st2"/>
   <polyline id="svg_13" stroke-miterlimit="10" stroke="#070808" fill="none" points="242.5800018310547,190.3800048828125 238.00999450683594,177.19000244140625 230.49000549316406,175.88999938964844 223.88999938964844,185.5800018310547 " class="st3"/>
   <polyline id="svg_14" stroke-miterlimit="10" stroke-width="3" stroke="#070808" fill="none" points="254.3300018310547,213.89999389648438 256.25999450683594,204.75999450683594 254.1199951171875,199.52999877929688 252.72999572753906,196.1300048828125 251.27000427246094,192.55999755859375 241.4199981689453,169.80999755859375 234.25999450683594,169.27999877929688 221.24000549316406,175.6999969482422 " class="st2"/>
   <polygon id="svg_15" stroke-miterlimit="10" stroke-width="3" stroke="#070808" fill="none" points="267.47999572753906,184.5 251.3300018310547,167.47000122070312 244.00999450683594,175.77000427246094 254.1199951171875,199.52999877929688 " class="st2"/>
   <polyline id="svg_16" stroke-miterlimit="10" stroke="#070808" fill="none" points="231.47000122070312,170.64999389648438 227.9600067138672,160.73999786376953 221.1199951171875,166.18000030517578 231.47000122070312,170.64999389648438 " class="st3"/>
   <polygon id="svg_17" stroke-miterlimit="10" stroke="#070808" fill="none" points="251.02000427246094,177.69000244140625 248.3699951171875,185.86000061035156 258.1300048828125,188.3300018310547 263.0299987792969,182.39999389648438 " class="st3"/>
   <polyline id="svg_18" stroke-miterlimit="10" stroke-width="3" stroke="#070808" fill="none" points="222.69000244140625,158.51000213623047 225.10000610351562,145.93000030517578 235.5399932861328,140.1500015258789 " class="st2"/>
   <polyline id="svg_19" stroke-miterlimit="10" stroke="#070808" fill="none" points="261.61000061035156,141.6699981689453 257.7100067138672,143.27999877929688 241.42999267578125,149.98999786376953 239.1300048828125,158.72000122070312 235.61000061035156,159.55999755859375 237.35000610351562,168.5500030517578 " class="st3"/>
   <polyline id="svg_20" stroke-miterlimit="10" stroke="#070808" fill="none" points="261.61000061035156,141.6699981689453 257.5,153.7699966430664 255.6999969482422,161.19000244140625 245.41000366210938,162.26000213623047 241.4199981689453,169.80999755859375 " class="st3"/>
   <polyline id="svg_21" stroke-miterlimit="10" stroke-width="3" stroke="#070808" fill="none" points="217.38999938964844,204.07000732421875 226.08999633789062,201.13999938964844 213.38999938964844,205.41000366210938 " class="st2"/>
   <line id="svg_22" stroke-miterlimit="10" stroke-width="3" stroke="#070808" fill="none" y2="176.16" x2="233.57" y1="191.5" x1="229.07" class="st2"/>
   <polygon id="svg_23" stroke-miterlimit="10" stroke-width="3" stroke="#070808" fill="none" points="249.91000366210938,225.9499969482422 252.3000030517578,262.0299987792969 242.5800018310547,282.55999755859375 228.41000366210938,283.7100067138672 246.85000610351562,299.1000061035156 263.69000244140625,290.4700012207031 269.6699981689453,273.17999267578125 " class="st2"/>
   <path id="svg_24" stroke-miterlimit="10" stroke-width="3" stroke="#070808" fill="none" d="m253.19,260.19l11.22,12.4l-0.88,20.59l-11.29,12.36l8.63,10.74l15.9,-7.97l10.75,-26.83l19.92,-1.61l14.02,-1.13l-5.02,6.38l-7.98,10.14l-13.53,1.09l18.7,15.66l34.93,-8.64l16.51,-26.25l0.8,-35.24l-5.55,-9.34l-7.11,-4.94l-13.24,-6.15l-11.67,-9.2l-5.62,-10.09c0,0 -12.63,7.71 -11.05,6.26c1.58,-1.45 7.63,-9.35 6.84,-8.89c-0.79,0.46 -4.74,-7.31 -6.05,-7.35c-1.32,-0.04 -10.77,0 -10.77,0l-5.56,2.58l4.23,-9.18l-2.26,0" class="st2"/>
   <polyline id="svg_25" stroke-miterlimit="10" stroke-width="3" stroke="#070808" fill="none" points="365.0400085449219,241.7899932861328 376.4800109863281,240.4499969482422 381.260009765625,222.91000366210938 367.0299987792969,221.7899932861328 369.5299987792969,233.85000610351562 355.6000061035156,222.91000366210938 369.1499938964844,212.11000061035156 390.2699890136719,218.0500030517578 393.3599853515625,241.42999267578125 380.57000732421875,260.1600036621094 365.0299987792969,261.3300018310547 " class="st2"/>
   <polygon id="svg_26" stroke-miterlimit="10" stroke-width="3" stroke="#070808" fill="none" points="287.99000549316406,281.44000244140625 288.57000732421875,290.0899963378906 304.19000244140625,280.1300048828125 " class="st2"/>
   <line id="svg_27" stroke-miterlimit="10" stroke-width="3" stroke="#070808" fill="none" y2="278.18" x2="322.69" y1="246.79" x1="336.24" class="st2"/>
   <path id="svg_28" stroke-miterlimit="10" stroke-width="3" stroke="#070808" fill="none" d="m344,222.91" class="st2"/>
   <polyline id="svg_29" stroke-miterlimit="10" stroke="#070808" fill="none" points="269.6699981689453,273.17999267578125 287.99000549316406,281.44000244140625 311.63999938964844,208.4199981689453 286.86000061035156,229.10000610351562 296.32000732421875,246.7899932861328 261.61000061035156,253.92999267578125 247.1199951171875,221.17999267578125 " class="st3"/>
   <polygon id="svg_30" stroke-miterlimit="10" stroke="#070808" fill="none" points="325.7300109863281,271.13999938964844 355.6000061035156,290.0899963378906 360.32000732421875,232.5500030517578 346.9599914550781,247.4499969482422 " class="st3"/>
   <polyline id="svg_31" stroke-miterlimit="10" stroke="#070808" fill="none" points="332.20001220703125,216.32000732421875 336.239990234375,246.7899932861328 302.55999755859375,236.4499969482422 322.69000244140625,202.16000366210938 " class="st3"/>
   <polyline id="svg_32" stroke-miterlimit="10" stroke="#070808" fill="none" points="390.2699890136719,218.0500030517578 379.57000732421875,229.10000610351562 386.3900146484375,251.63999938964844 " class="st3"/>
   <polyline id="svg_33" stroke-miterlimit="10" stroke="#070808" fill="none" points="244.00999450683594,281.44000244140625 256.25999450683594,282.8300018310547 250.1300048828125,266.61000061035156 263.0299987792969,278.17999267578125 " class="st3"/>
   <polyline id="svg_34" stroke-miterlimit="10" stroke="#070808" fill="none" points="293.07000732421875,165.69000244140625 282.9499969482422,186.25 296.0899963378906,188.3300018310547 " class="st3"/>
  </g>
 </g>
</svg>